<svg id="mermaid-1784101861245" width="1755.16015625" xmlns="http://www.w3.org/2000/svg" xmlns:xlink="http://www.w3.org/1999/xlink" style="max-width: 1755.16px; width: 1755.16px; height: 1838.23px;" viewBox="-8 -8 1755.16015625 1838.234375" role="graphics-document document" aria-roledescription="flowchart-v2" height="1838.234375"><style>#mermaid-1784101861245{font-family:"trebuchet ms",verdana,arial,sans-serif;font-size:16px;fill:#333;}#mermaid-1784101861245 .error-icon{fill:#552222;}#mermaid-1784101861245 .error-text{fill:#552222;stroke:#552222;}#mermaid-1784101861245 .edge-thickness-normal{stroke-width:2px;}#mermaid-1784101861245 .edge-thickness-thick{stroke-width:3.5px;}#mermaid-1784101861245 .edge-pattern-solid{stroke-dasharray:0;}#mermaid-1784101861245 .edge-pattern-dashed{stroke-dasharray:3;}#mermaid-1784101861245 .edge-pattern-dotted{stroke-dasharray:2;}#mermaid-1784101861245 .marker{fill:#333333;stroke:#333333;}#mermaid-1784101861245 .marker.cross{stroke:#333333;}#mermaid-1784101861245 svg{font-family:"trebuchet ms",verdana,arial,sans-serif;font-size:16px;}#mermaid-1784101861245 .label{font-family:"trebuchet ms",verdana,arial,sans-serif;color:#333;}#mermaid-1784101861245 .cluster-label text{fill:#333;}#mermaid-1784101861245 .cluster-label span,#mermaid-1784101861245 p{color:#333;}#mermaid-1784101861245 .label text,#mermaid-1784101861245 span,#mermaid-1784101861245 p{fill:#333;color:#333;}#mermaid-1784101861245 .node rect,#mermaid-1784101861245 .node circle,#mermaid-1784101861245 .node ellipse,#mermaid-1784101861245 .node polygon,#mermaid-1784101861245 .node path{fill:#ECECFF;stroke:#9370DB;stroke-width:1px;}#mermaid-1784101861245 .flowchart-label text{text-anchor:middle;}#mermaid-1784101861245 .node .katex path{fill:#000;stroke:#000;stroke-width:1px;}#mermaid-1784101861245 .node .label{text-align:center;}#mermaid-1784101861245 .node.clickable{cursor:pointer;}#mermaid-1784101861245 .arrowheadPath{fill:#333333;}#mermaid-1784101861245 .edgePath .path{stroke:#333333;stroke-width:2.0px;}#mermaid-1784101861245 .flowchart-link{stroke:#333333;fill:none;}#mermaid-1784101861245 .edgeLabel{background-color:#e8e8e8;text-align:center;}#mermaid-1784101861245 .edgeLabel rect{opacity:0.5;background-color:#e8e8e8;fill:#e8e8e8;}#mermaid-1784101861245 .labelBkg{background-color:rgba(232, 232, 232, 0.5);}#mermaid-1784101861245 .cluster rect{fill:#ffffde;stroke:#aaaa33;stroke-width:1px;}#mermaid-1784101861245 .cluster text{fill:#333;}#mermaid-1784101861245 .cluster span,#mermaid-1784101861245 p{color:#333;}#mermaid-1784101861245 div.mermaidTooltip{position:absolute;text-align:center;max-width:200px;padding:2px;font-family:"trebuchet ms",verdana,arial,sans-serif;font-size:12px;background:hsl(80, 100%, 96.2745098039%);border:1px solid #aaaa33;border-radius:2px;pointer-events:none;z-index:100;}#mermaid-1784101861245 .flowchartTitleText{text-anchor:middle;font-size:18px;fill:#333;}#mermaid-1784101861245 :root{--mermaid-font-family:"trebuchet ms",verdana,arial,sans-serif;}</style><g><marker id="mermaid-1784101861245_flowchart-pointEnd" class="marker flowchart" viewBox="0 0 10 10" refX="6" refY="5" markerUnits="userSpaceOnUse" markerWidth="12" markerHeight="12" orient="auto"><path d="M 0 0 L 10 5 L 0 10 z" class="arrowMarkerPath" style="stroke-width: 1; stroke-dasharray: 1, 0;"/></marker><marker id="mermaid-1784101861245_flowchart-pointStart" class="marker flowchart" viewBox="0 0 10 10" refX="4.5" refY="5" markerUnits="userSpaceOnUse" markerWidth="12" markerHeight="12" orient="auto"><path d="M 0 5 L 10 10 L 10 0 z" class="arrowMarkerPath" style="stroke-width: 1; stroke-dasharray: 1, 0;"/></marker><marker id="mermaid-1784101861245_flowchart-circleEnd" class="marker flowchart" viewBox="0 0 10 10" refX="11" refY="5" markerUnits="userSpaceOnUse" markerWidth="11" markerHeight="11" orient="auto"><circle cx="5" cy="5" r="5" class="arrowMarkerPath" style="stroke-width: 1; stroke-dasharray: 1, 0;"/></marker><marker id="mermaid-1784101861245_flowchart-circleStart" class="marker flowchart" viewBox="0 0 10 10" refX="-1" refY="5" markerUnits="userSpaceOnUse" markerWidth="11" markerHeight="11" orient="auto"><circle cx="5" cy="5" r="5" class="arrowMarkerPath" style="stroke-width: 1; stroke-dasharray: 1, 0;"/></marker><marker id="mermaid-1784101861245_flowchart-crossEnd" class="marker cross flowchart" viewBox="0 0 11 11" refX="12" refY="5.2" markerUnits="userSpaceOnUse" markerWidth="11" markerHeight="11" orient="auto"><path d="M 1,1 l 9,9 M 10,1 l -9,9" class="arrowMarkerPath" style="stroke-width: 2; stroke-dasharray: 1, 0;"/></marker><marker id="mermaid-1784101861245_flowchart-crossStart" class="marker cross flowchart" viewBox="0 0 11 11" refX="-1" refY="5.2" markerUnits="userSpaceOnUse" markerWidth="11" markerHeight="11" orient="auto"><path d="M 1,1 l 9,9 M 10,1 l -9,9" class="arrowMarkerPath" style="stroke-width: 2; stroke-dasharray: 1, 0;"/></marker><g class="root"><g class="clusters"/><g class="edgePaths"><path d="M1305.121,34L1305.121,38.167C1305.121,42.333,1305.121,50.667,1305.121,58.117C1305.121,65.567,1305.121,72.133,1305.121,75.417L1305.121,78.7" id="L-A-B-0" class="edge-thickness-normal edge-pattern-solid flowchart-link LS-A LE-B" style="fill:none;" marker-end="url(#mermaid-1784101861245_flowchart-pointEnd)"/><path d="M1305.121,137L1305.121,141.167C1305.121,145.333,1305.121,153.667,1305.121,161.117C1305.121,168.567,1305.121,175.133,1305.121,178.417L1305.121,181.7" id="L-B-C-0" class="edge-thickness-normal edge-pattern-solid flowchart-link LS-B LE-C" style="fill:none;" marker-end="url(#mermaid-1784101861245_flowchart-pointEnd)"/><path d="M1264.838,240L1258.505,244.167C1252.171,248.333,1239.503,256.667,1233.236,264.2C1226.968,271.734,1227.1,278.467,1227.166,281.834L1227.232,285.201" id="L-C-D-0" class="edge-thickness-normal edge-pattern-solid flowchart-link LS-C LE-D" style="fill:none;" marker-end="url(#mermaid-1784101861245_flowchart-pointEnd)"/><path d="M1194.927,373.841L1180.652,384.909C1166.377,395.977,1137.827,418.114,1123.552,434.049C1109.277,449.983,1109.277,459.717,1109.277,464.583L1109.277,469.45" id="L-D-E-0" class="edge-thickness-normal edge-pattern-solid flowchart-link LS-D LE-E" style="fill:none;" marker-end="url(#mermaid-1784101861245_flowchart-pointEnd)"/><path d="M1272.421,361.165L1319.096,374.346C1365.77,387.526,1459.12,413.888,1505.794,433.519C1552.469,453.15,1552.469,466.05,1552.469,472.5L1552.469,478.95" id="L-D-F-0" class="edge-thickness-normal edge-pattern-solid flowchart-link LS-D LE-F" style="fill:none;" marker-end="url(#mermaid-1784101861245_flowchart-pointEnd)"/><path d="M1109.277,527.75L1109.277,531.917C1109.277,536.083,1109.277,544.417,1120.108,552.453C1130.939,560.489,1152.6,568.228,1163.431,572.097L1174.262,575.967" id="L-E-G-0" class="edge-thickness-normal edge-pattern-solid flowchart-link LS-E LE-G" style="fill:none;" marker-end="url(#mermaid-1784101861245_flowchart-pointEnd)"/><path d="M1552.469,518.25L1552.469,524C1552.469,529.75,1552.469,541.25,1519.334,551.274C1486.2,561.297,1419.931,569.845,1386.797,574.118L1353.663,578.392" id="L-F-G-0" class="edge-thickness-normal edge-pattern-solid flowchart-link LS-F LE-G" style="fill:none;" marker-end="url(#mermaid-1784101861245_flowchart-pointEnd)"/><path d="M1226.836,611.75L1226.836,615.917C1226.836,620.083,1226.836,628.417,1226.836,635.867C1226.836,643.317,1226.836,649.883,1226.836,653.167L1226.836,656.45" id="L-G-H-0" class="edge-thickness-normal edge-pattern-solid flowchart-link LS-G LE-H" style="fill:none;" marker-end="url(#mermaid-1784101861245_flowchart-pointEnd)"/><path d="M1131.797,708.817L1107.973,713.972C1084.15,719.128,1036.503,729.439,1012.679,737.878C988.855,746.317,988.855,752.883,988.855,756.167L988.855,759.45" id="L-H-I-0" class="edge-thickness-normal edge-pattern-solid flowchart-link LS-H LE-I" style="fill:none;" marker-end="url(#mermaid-1784101861245_flowchart-pointEnd)"/><path d="M871.277,789.51L760.828,796.8C650.379,804.09,429.48,818.67,319.031,830.827C208.582,842.983,208.582,852.717,208.582,857.583L208.582,862.45" id="L-I-J1-0" class="edge-thickness-normal edge-pattern-solid flowchart-link LS-I LE-J1" style="fill:none;" marker-end="url(#mermaid-1784101861245_flowchart-pointEnd)"/><path d="M906.038,798.75L878.027,804.5C850.015,810.25,793.992,821.75,765.98,832.367C737.969,842.983,737.969,852.717,737.969,857.583L737.969,862.45" id="L-I-J2-0" class="edge-thickness-normal edge-pattern-solid flowchart-link LS-I LE-J2" style="fill:none;" marker-end="url(#mermaid-1784101861245_flowchart-pointEnd)"/><path d="M1010.295,798.75L1017.547,804.5C1024.798,810.25,1039.301,821.75,1046.553,833.95C1053.805,846.15,1053.805,859.05,1053.805,865.5L1053.805,871.95" id="L-I-J3-0" class="edge-thickness-normal edge-pattern-solid flowchart-link LS-I LE-J3" style="fill:none;" marker-end="url(#mermaid-1784101861245_flowchart-pointEnd)"/><path d="M1106.434,798.147L1148.387,803.997C1190.341,809.848,1274.249,821.549,1316.202,832.266C1358.156,842.983,1358.156,852.717,1358.156,857.583L1358.156,862.45" id="L-I-J12-0" class="edge-thickness-normal edge-pattern-solid flowchart-link LS-I LE-J12" style="fill:none;" marker-end="url(#mermaid-1784101861245_flowchart-pointEnd)"/><path d="M166.919,920.75L155.389,928.083C143.86,935.417,120.801,950.083,109.345,963.95C97.889,977.817,98.036,990.884,98.109,997.417L98.183,1003.95" id="L-J1-TQ1-0" class="edge-thickness-normal edge-pattern-solid flowchart-link LS-J1 LE-TQ1" style="fill:none;" marker-end="url(#mermaid-1784101861245_flowchart-pointEnd)"/><path d="M157.531,1068.539L183.991,1051.241C210.451,1033.943,263.37,999.346,279.365,975.199C295.36,951.051,274.431,937.352,263.967,930.502L253.502,923.653" id="L-TQ1-J1-0" class="edge-thickness-normal edge-pattern-solid flowchart-link LS-TQ1 LE-J1" style="fill:none;" marker-end="url(#mermaid-1784101861245_flowchart-pointEnd)"/><path d="M98.242,1204.734L98.159,1210.401C98.076,1216.068,97.909,1227.401,158.307,1240.173C218.705,1252.945,339.668,1267.155,400.149,1274.26L460.631,1281.365" id="L-TQ1-K-0" class="edge-thickness-normal edge-pattern-solid flowchart-link LS-TQ1 LE-K" style="fill:none;" marker-end="url(#mermaid-1784101861245_flowchart-pointEnd)"/><path d="M662.1,920.75L641.105,928.083C620.11,935.417,578.119,950.083,557.197,963.95C536.276,977.817,536.423,990.884,536.496,997.417L536.569,1003.95" id="L-J2-TQ2-0" class="edge-thickness-normal edge-pattern-solid flowchart-link LS-J2 LE-TQ2" style="fill:none;" marker-end="url(#mermaid-1784101861245_flowchart-pointEnd)"/><path d="M606.536,1079.157L654.132,1060.089C701.729,1041.021,796.921,1002.886,829.286,976.852C861.652,950.818,831.191,936.886,815.96,929.92L800.729,922.954" id="L-TQ2-J2-0" class="edge-thickness-normal edge-pattern-solid flowchart-link LS-TQ2 LE-J2" style="fill:none;" marker-end="url(#mermaid-1784101861245_flowchart-pointEnd)"/><path d="M536.629,1204.734L536.546,1210.401C536.462,1216.068,536.296,1227.401,536.212,1237.934C536.129,1248.468,536.129,1258.201,536.129,1263.068L536.129,1267.934" id="L-TQ2-K-0" class="edge-thickness-normal edge-pattern-solid flowchart-link LS-TQ2 LE-K" style="fill:none;" marker-end="url(#mermaid-1784101861245_flowchart-pointEnd)"/><path d="M1035.506,911.25L1025.908,920.167C1016.31,929.083,997.114,946.917,987.589,962.367C978.065,977.817,978.212,990.884,978.285,997.417L978.358,1003.95" id="L-J3-TQ3-0" class="edge-thickness-normal edge-pattern-solid flowchart-link LS-J3 LE-TQ3" style="fill:none;" marker-end="url(#mermaid-1784101861245_flowchart-pointEnd)"/><path d="M1037.707,1068.539L1064.167,1051.241C1090.626,1033.943,1143.546,999.346,1151.754,973.029C1159.961,946.711,1123.458,928.671,1105.206,919.652L1086.955,910.632" id="L-TQ3-J3-0" class="edge-thickness-normal edge-pattern-solid flowchart-link LS-TQ3 LE-J3" style="fill:none;" marker-end="url(#mermaid-1784101861245_flowchart-pointEnd)"/><path d="M978.418,1204.734L978.335,1210.401C978.251,1216.068,978.085,1227.401,916.953,1240.184C855.821,1252.967,733.724,1267.2,672.676,1274.317L611.628,1281.433" id="L-TQ3-K-0" class="edge-thickness-normal edge-pattern-solid flowchart-link LS-TQ3 LE-K" style="fill:none;" marker-end="url(#mermaid-1784101861245_flowchart-pointEnd)"/><path d="M1329.631,920.75L1321.738,928.083C1313.844,935.417,1298.057,950.083,1290.237,963.95C1282.416,977.817,1282.563,990.884,1282.637,997.417L1282.71,1003.95" id="L-J12-TQ12-0" class="edge-thickness-normal edge-pattern-solid flowchart-link LS-J12 LE-TQ12" style="fill:none;" marker-end="url(#mermaid-1784101861245_flowchart-pointEnd)"/><path d="M1342.059,1068.539L1368.518,1051.241C1394.978,1033.943,1447.897,999.346,1460.309,975.106C1472.722,950.866,1444.627,936.982,1430.579,930.04L1416.532,923.098" id="L-TQ12-J12-0" class="edge-thickness-normal edge-pattern-solid flowchart-link LS-TQ12 LE-J12" style="fill:none;" marker-end="url(#mermaid-1784101861245_flowchart-pointEnd)"/><path d="M1282.77,1204.734L1282.686,1210.401C1282.603,1216.068,1282.436,1227.401,1170.583,1240.782C1058.73,1254.163,835.19,1269.593,723.421,1277.307L611.651,1285.022" id="L-TQ12-K-0" class="edge-thickness-normal edge-pattern-solid flowchart-link LS-TQ12 LE-K" style="fill:none;" marker-end="url(#mermaid-1784101861245_flowchart-pointEnd)"/><path d="M536.129,1307.234L536.129,1312.984C536.129,1318.734,536.129,1330.234,536.129,1340.851C536.129,1351.468,536.129,1361.201,536.129,1366.068L536.129,1370.934" id="L-K-L-0" class="edge-thickness-normal edge-pattern-solid flowchart-link LS-K LE-L" style="fill:none;" marker-end="url(#mermaid-1784101861245_flowchart-pointEnd)"/><path d="M466.082,1429.234L455.068,1433.401C444.055,1437.568,422.027,1445.901,411.014,1453.351C400,1460.801,400,1467.368,400,1470.651L400,1473.934" id="L-L-M-0" class="edge-thickness-normal edge-pattern-solid flowchart-link LS-L LE-M" style="fill:none;" marker-end="url(#mermaid-1784101861245_flowchart-pointEnd)"/><path d="M569.963,1429.234L575.283,1433.401C580.603,1437.568,591.243,1445.901,596.563,1458.651C601.883,1471.401,601.883,1488.568,601.883,1507.318C601.883,1526.068,601.883,1546.401,601.883,1565.151C601.883,1583.901,601.883,1601.068,601.883,1616.651C601.883,1632.234,601.883,1646.234,601.883,1658.101C601.883,1669.968,601.883,1679.701,601.883,1684.568L601.883,1689.434" id="L-L-N1-0" class="edge-thickness-normal edge-pattern-solid flowchart-link LS-L LE-N1" style="fill:none;" marker-end="url(#mermaid-1784101861245_flowchart-pointEnd)"/><path d="M367.523,1532.234L360.476,1537.984C353.43,1543.734,339.336,1555.234,332.289,1569.568C325.242,1583.901,325.242,1601.068,325.242,1616.651C325.242,1632.234,325.242,1646.234,325.242,1658.101C325.242,1669.968,325.242,1679.701,325.242,1684.568L325.242,1689.434" id="L-M-N2-0" class="edge-thickness-normal edge-pattern-solid flowchart-link LS-M LE-N2" style="fill:none;" marker-end="url(#mermaid-1784101861245_flowchart-pointEnd)"/><path d="M1425.207,229.309L1470.393,235.257C1515.579,241.206,1605.952,253.103,1651.138,272.864C1696.324,292.625,1696.324,320.25,1696.324,349.458C1696.324,378.667,1696.324,409.458,1696.324,435.021C1696.324,460.583,1696.324,480.917,1696.324,499.667C1696.324,518.417,1696.324,535.583,1696.324,551.167C1696.324,566.75,1696.324,580.75,1696.324,594.75C1696.324,608.75,1696.324,622.75,1696.324,638.333C1696.324,653.917,1696.324,671.083,1696.324,688.25C1696.324,705.417,1696.324,722.583,1696.324,738.167C1696.324,753.75,1696.324,767.75,1696.324,783.333C1696.324,798.917,1696.324,816.083,1696.324,834.833C1696.324,853.583,1696.324,873.917,1696.324,895.833C1696.324,917.75,1696.324,941.25,1696.324,976.624C1696.324,1011.997,1696.324,1059.245,1696.324,1104.909C1696.324,1150.573,1696.324,1194.654,1696.324,1225.277C1696.324,1255.901,1696.324,1273.068,1696.324,1290.234C1696.324,1307.401,1696.324,1324.568,1696.324,1343.318C1696.324,1362.068,1696.324,1382.401,1696.324,1401.151C1696.324,1419.901,1696.324,1437.068,1696.324,1454.234C1696.324,1471.401,1696.324,1488.568,1696.324,1507.318C1696.324,1526.068,1696.324,1546.401,1577.04,1564.533C1457.756,1582.665,1219.188,1598.596,1099.904,1606.561L980.62,1614.527" id="L-C-P-0" class="edge-thickness-normal edge-pattern-dotted flowchart-link LS-C LE-P" style="fill:none;stroke-width:2px;stroke-dasharray:3;" marker-end="url(#mermaid-1784101861245_flowchart-pointEnd)"/><path d="M1321.875,701.854L1365.999,708.17C1410.124,714.486,1498.372,727.118,1542.497,740.434C1586.621,753.75,1586.621,767.75,1586.621,783.333C1586.621,798.917,1586.621,816.083,1586.621,834.833C1586.621,853.583,1586.621,873.917,1586.621,895.833C1586.621,917.75,1586.621,941.25,1586.621,976.624C1586.621,1011.997,1586.621,1059.245,1586.621,1104.909C1586.621,1150.573,1586.621,1194.654,1586.621,1225.277C1586.621,1255.901,1586.621,1273.068,1586.621,1290.234C1586.621,1307.401,1586.621,1324.568,1586.621,1343.318C1586.621,1362.068,1586.621,1382.401,1586.621,1401.151C1586.621,1419.901,1586.621,1437.068,1586.621,1454.234C1586.621,1471.401,1586.621,1488.568,1586.621,1507.318C1586.621,1526.068,1586.621,1546.401,1485.62,1564.431C1384.619,1582.46,1182.618,1598.186,1081.617,1606.049L980.616,1613.912" id="L-H-P-0" class="edge-thickness-normal edge-pattern-dotted flowchart-link LS-H LE-P" style="fill:none;stroke-width:2px;stroke-dasharray:3;" marker-end="url(#mermaid-1784101861245_flowchart-pointEnd)"/><path d="M216.815,920.75L219.093,928.083C221.371,935.417,225.928,950.083,228.206,981.04C230.484,1011.997,230.484,1059.245,230.484,1104.909C230.484,1150.573,230.484,1194.654,230.484,1225.277C230.484,1255.901,230.484,1273.068,230.484,1290.234C230.484,1307.401,230.484,1324.568,230.484,1343.318C230.484,1362.068,230.484,1382.401,230.484,1401.151C230.484,1419.901,230.484,1437.068,230.484,1454.234C230.484,1471.401,230.484,1488.568,230.484,1507.318C230.484,1526.068,230.484,1546.401,337,1564.465C443.516,1582.529,656.547,1598.323,763.062,1606.221L869.578,1614.118" id="L-J1-P-0" class="edge-thickness-normal edge-pattern-dotted flowchart-link LS-J1 LE-P" style="fill:none;stroke-width:2px;stroke-dasharray:3;" marker-end="url(#mermaid-1784101861245_flowchart-pointEnd)"/><path d="M763.657,920.75L770.765,928.083C777.874,935.417,792.091,950.083,799.2,981.04C806.309,1011.997,806.309,1059.245,806.309,1104.909C806.309,1150.573,806.309,1194.654,806.309,1225.277C806.309,1255.901,806.309,1273.068,806.309,1290.234C806.309,1307.401,806.309,1324.568,806.309,1343.318C806.309,1362.068,806.309,1382.401,806.309,1401.151C806.309,1419.901,806.309,1437.068,806.309,1454.234C806.309,1471.401,806.309,1488.568,806.309,1507.318C806.309,1526.068,806.309,1546.401,818.761,1561.966C831.213,1577.532,856.118,1588.329,868.571,1593.728L881.023,1599.126" id="L-J2-P-0" class="edge-thickness-normal edge-pattern-dotted flowchart-link LS-J2 LE-P" style="fill:none;stroke-width:2px;stroke-dasharray:3;" marker-end="url(#mermaid-1784101861245_flowchart-pointEnd)"/><path d="M1067.515,911.25L1074.705,920.167C1081.896,929.083,1096.278,946.917,1103.469,979.457C1110.66,1011.997,1110.66,1059.245,1110.66,1104.909C1110.66,1150.573,1110.66,1194.654,1110.66,1225.277C1110.66,1255.901,1110.66,1273.068,1110.66,1290.234C1110.66,1307.401,1110.66,1324.568,1110.66,1343.318C1110.66,1362.068,1110.66,1382.401,1110.66,1401.151C1110.66,1419.901,1110.66,1437.068,1110.66,1454.234C1110.66,1471.401,1110.66,1488.568,1110.66,1507.318C1110.66,1526.068,1110.66,1546.401,1088.957,1562.591C1067.253,1578.781,1023.846,1590.828,1002.143,1596.852L980.439,1602.875" id="L-J3-P-0" class="edge-thickness-normal edge-pattern-dotted flowchart-link LS-J3 LE-P" style="fill:none;stroke-width:2px;stroke-dasharray:3;" marker-end="url(#mermaid-1784101861245_flowchart-pointEnd)"/><path d="M1379.527,920.75L1385.441,928.083C1391.356,935.417,1403.184,950.083,1409.098,981.04C1415.012,1011.997,1415.012,1059.245,1415.012,1104.909C1415.012,1150.573,1415.012,1194.654,1415.012,1225.277C1415.012,1255.901,1415.012,1273.068,1415.012,1290.234C1415.012,1307.401,1415.012,1324.568,1415.012,1343.318C1415.012,1362.068,1415.012,1382.401,1415.012,1401.151C1415.012,1419.901,1415.012,1437.068,1415.012,1454.234C1415.012,1471.401,1415.012,1488.568,1415.012,1507.318C1415.012,1526.068,1415.012,1546.401,1342.61,1564.179C1270.209,1581.956,1125.406,1597.178,1053.004,1604.789L980.603,1612.4" id="L-J12-P-0" class="edge-thickness-normal edge-pattern-dotted flowchart-link LS-J12 LE-P" style="fill:none;stroke-width:2px;stroke-dasharray:3;" marker-end="url(#mermaid-1784101861245_flowchart-pointEnd)"/><path d="M634.262,1429.234L649.691,1433.401C665.121,1437.568,695.98,1445.901,711.41,1458.651C726.84,1471.401,726.84,1488.568,726.84,1507.318C726.84,1526.068,726.84,1546.401,750.655,1562.754C774.471,1579.107,822.102,1591.48,845.918,1597.666L869.734,1603.853" id="L-L-P-0" class="edge-thickness-normal edge-pattern-dotted flowchart-link LS-L LE-P" style="fill:none;stroke-width:2px;stroke-dasharray:3;" marker-end="url(#mermaid-1784101861245_flowchart-pointEnd)"/><path d="M437.233,1532.234L445.312,1537.984C453.391,1543.734,469.549,1555.234,541.61,1568.484C613.671,1581.733,741.635,1596.731,805.617,1604.23L869.599,1611.73" id="L-M-P-0" class="edge-thickness-normal edge-pattern-dotted flowchart-link LS-M LE-P" style="fill:none;stroke-width:2px;stroke-dasharray:3;" marker-end="url(#mermaid-1784101861245_flowchart-pointEnd)"/><path d="M925.098,1635.234L925.098,1639.401C925.098,1643.568,925.098,1651.901,925.098,1659.351C925.098,1666.801,925.098,1673.368,925.098,1676.651L925.098,1679.934" id="L-P-Q-0" class="edge-thickness-normal edge-pattern-solid flowchart-link LS-P LE-Q" style="fill:none;" marker-end="url(#mermaid-1784101861245_flowchart-pointEnd)"/><path d="M601.883,1728.734L601.883,1734.484C601.883,1740.234,601.883,1751.734,596.234,1761.206C590.585,1770.677,579.287,1778.119,573.638,1781.841L567.988,1785.562" id="L-N1-R-0" class="edge-thickness-normal edge-pattern-solid flowchart-link LS-N1 LE-R" style="fill:none;" marker-end="url(#mermaid-1784101861245_flowchart-pointEnd)"/><path d="M325.242,1728.734L325.242,1734.484C325.242,1740.234,325.242,1751.734,355.616,1763.477C385.991,1775.22,446.739,1787.205,477.113,1793.197L507.488,1799.19" id="L-N2-R-0" class="edge-thickness-normal edge-pattern-solid flowchart-link LS-N2 LE-R" style="fill:none;" marker-end="url(#mermaid-1784101861245_flowchart-pointEnd)"/><path d="M925.098,1738.234L925.098,1742.401C925.098,1746.568,925.098,1754.901,865.72,1765.512C806.342,1776.123,687.587,1789.013,628.209,1795.457L568.832,1801.902" id="L-Q-R-0" class="edge-thickness-normal edge-pattern-solid flowchart-link LS-Q LE-R" style="fill:none;" marker-end="url(#mermaid-1784101861245_flowchart-pointEnd)"/></g><g class="edgeLabels"><g class="edgeLabel"><g class="label" transform="translate(0, 0)"><foreignObject width="0" height="0"><div xmlns="http://www.w3.org/1999/xhtml" style="display: inline-block; white-space: nowrap;"><span class="edgeLabel"></span></div></foreignObject></g></g><g class="edgeLabel"><g class="label" transform="translate(0, 0)"><foreignObject width="0" height="0"><div xmlns="http://www.w3.org/1999/xhtml" style="display: inline-block; white-space: nowrap;"><span class="edgeLabel"></span></div></foreignObject></g></g><g class="edgeLabel"><g class="label" transform="translate(0, 0)"><foreignObject width="0" height="0"><div xmlns="http://www.w3.org/1999/xhtml" style="display: inline-block; white-space: nowrap;"><span class="edgeLabel"></span></div></foreignObject></g></g><g class="edgeLabel" transform="translate(1109.27734375, 440.25)"><g class="label" transform="translate(-11.546875, -9.5)"><foreignObject width="23.09375" height="19"><div xmlns="http://www.w3.org/1999/xhtml" style="display: inline-block; white-space: nowrap;"><span class="edgeLabel">yes</span></div></foreignObject></g></g><g class="edgeLabel" transform="translate(1552.46875, 440.25)"><g class="label" transform="translate(-8.6640625, -9.5)"><foreignObject width="17.328125" height="19"><div xmlns="http://www.w3.org/1999/xhtml" style="display: inline-block; white-space: nowrap;"><span class="edgeLabel">no</span></div></foreignObject></g></g><g class="edgeLabel"><g class="label" transform="translate(0, 0)"><foreignObject width="0" height="0"><div xmlns="http://www.w3.org/1999/xhtml" style="display: inline-block; white-space: nowrap;"><span class="edgeLabel"></span></div></foreignObject></g></g><g class="edgeLabel"><g class="label" transform="translate(0, 0)"><foreignObject width="0" height="0"><div xmlns="http://www.w3.org/1999/xhtml" style="display: inline-block; white-space: nowrap;"><span class="edgeLabel"></span></div></foreignObject></g></g><g class="edgeLabel"><g class="label" transform="translate(0, 0)"><foreignObject width="0" height="0"><div xmlns="http://www.w3.org/1999/xhtml" style="display: inline-block; white-space: nowrap;"><span class="edgeLabel"></span></div></foreignObject></g></g><g class="edgeLabel"><g class="label" transform="translate(0, 0)"><foreignObject width="0" height="0"><div xmlns="http://www.w3.org/1999/xhtml" style="display: inline-block; white-space: nowrap;"><span class="edgeLabel"></span></div></foreignObject></g></g><g class="edgeLabel"><g class="label" transform="translate(0, 0)"><foreignObject width="0" height="0"><div xmlns="http://www.w3.org/1999/xhtml" style="display: inline-block; white-space: nowrap;"><span class="edgeLabel"></span></div></foreignObject></g></g><g class="edgeLabel"><g class="label" transform="translate(0, 0)"><foreignObject width="0" height="0"><div xmlns="http://www.w3.org/1999/xhtml" style="display: inline-block; white-space: nowrap;"><span class="edgeLabel"></span></div></foreignObject></g></g><g class="edgeLabel"><g class="label" transform="translate(0, 0)"><foreignObject width="0" height="0"><div xmlns="http://www.w3.org/1999/xhtml" style="display: inline-block; white-space: nowrap;"><span class="edgeLabel"></span></div></foreignObject></g></g><g class="edgeLabel"><g class="label" transform="translate(0, 0)"><foreignObject width="0" height="0"><div xmlns="http://www.w3.org/1999/xhtml" style="display: inline-block; white-space: nowrap;"><span class="edgeLabel"></span></div></foreignObject></g></g><g class="edgeLabel"><g class="label" transform="translate(0, 0)"><foreignObject width="0" height="0"><div xmlns="http://www.w3.org/1999/xhtml" style="display: inline-block; white-space: nowrap;"><span class="edgeLabel"></span></div></foreignObject></g></g><g class="edgeLabel" transform="translate(316.2890625, 964.75)"><g class="label" transform="translate(-65.8046875, -19)"><foreignObject width="131.609375" height="38"><div xmlns="http://www.w3.org/1999/xhtml" style="display: inline-block; white-space: nowrap;"><span class="edgeLabel">retry, up to 2x<br />reinforced prompt</span></div></foreignObject></g></g><g class="edgeLabel" transform="translate(97.7421875, 1238.734375)"><g class="label" transform="translate(-8.328125, -9.5)"><foreignObject width="16.65625" height="19"><div xmlns="http://www.w3.org/1999/xhtml" style="display: inline-block; white-space: nowrap;"><span class="edgeLabel">ok</span></div></foreignObject></g></g><g class="edgeLabel"><g class="label" transform="translate(0, 0)"><foreignObject width="0" height="0"><div xmlns="http://www.w3.org/1999/xhtml" style="display: inline-block; white-space: nowrap;"><span class="edgeLabel"></span></div></foreignObject></g></g><g class="edgeLabel" transform="translate(892.11328125, 964.75)"><g class="label" transform="translate(-65.8046875, -19)"><foreignObject width="131.609375" height="38"><div xmlns="http://www.w3.org/1999/xhtml" style="display: inline-block; white-space: nowrap;"><span class="edgeLabel">retry, up to 2x<br />reinforced prompt</span></div></foreignObject></g></g><g class="edgeLabel" transform="translate(536.12890625, 1238.734375)"><g class="label" transform="translate(-8.328125, -9.5)"><foreignObject width="16.65625" height="19"><div xmlns="http://www.w3.org/1999/xhtml" style="display: inline-block; white-space: nowrap;"><span class="edgeLabel">ok</span></div></foreignObject></g></g><g class="edgeLabel"><g class="label" transform="translate(0, 0)"><foreignObject width="0" height="0"><div xmlns="http://www.w3.org/1999/xhtml" style="display: inline-block; white-space: nowrap;"><span class="edgeLabel"></span></div></foreignObject></g></g><g class="edgeLabel" transform="translate(1196.46484375, 964.75)"><g class="label" transform="translate(-65.8046875, -19)"><foreignObject width="131.609375" height="38"><div xmlns="http://www.w3.org/1999/xhtml" style="display: inline-block; white-space: nowrap;"><span class="edgeLabel">retry, up to 2x<br />reinforced prompt</span></div></foreignObject></g></g><g class="edgeLabel" transform="translate(977.91796875, 1238.734375)"><g class="label" transform="translate(-8.328125, -9.5)"><foreignObject width="16.65625" height="19"><div xmlns="http://www.w3.org/1999/xhtml" style="display: inline-block; white-space: nowrap;"><span class="edgeLabel">ok</span></div></foreignObject></g></g><g class="edgeLabel"><g class="label" transform="translate(0, 0)"><foreignObject width="0" height="0"><div xmlns="http://www.w3.org/1999/xhtml" style="display: inline-block; white-space: nowrap;"><span class="edgeLabel"></span></div></foreignObject></g></g><g class="edgeLabel" transform="translate(1500.81640625, 964.75)"><g class="label" transform="translate(-65.8046875, -19)"><foreignObject width="131.609375" height="38"><div xmlns="http://www.w3.org/1999/xhtml" style="display: inline-block; white-space: nowrap;"><span class="edgeLabel">retry, up to 2x<br />reinforced prompt</span></div></foreignObject></g></g><g class="edgeLabel" transform="translate(1282.26953125, 1238.734375)"><g class="label" transform="translate(-8.328125, -9.5)"><foreignObject width="16.65625" height="19"><div xmlns="http://www.w3.org/1999/xhtml" style="display: inline-block; white-space: nowrap;"><span class="edgeLabel">ok</span></div></foreignObject></g></g><g class="edgeLabel"><g class="label" transform="translate(0, 0)"><foreignObject width="0" height="0"><div xmlns="http://www.w3.org/1999/xhtml" style="display: inline-block; white-space: nowrap;"><span class="edgeLabel"></span></div></foreignObject></g></g><g class="edgeLabel"><g class="label" transform="translate(0, 0)"><foreignObject width="0" height="0"><div xmlns="http://www.w3.org/1999/xhtml" style="display: inline-block; white-space: nowrap;"><span class="edgeLabel"></span></div></foreignObject></g></g><g class="edgeLabel"><g class="label" transform="translate(0, 0)"><foreignObject width="0" height="0"><div xmlns="http://www.w3.org/1999/xhtml" style="display: inline-block; white-space: nowrap;"><span class="edgeLabel"></span></div></foreignObject></g></g><g class="edgeLabel"><g class="label" transform="translate(0, 0)"><foreignObject width="0" height="0"><div xmlns="http://www.w3.org/1999/xhtml" style="display: inline-block; white-space: nowrap;"><span class="edgeLabel"></span></div></foreignObject></g></g><g class="edgeLabel" transform="translate(1696.32421875, 833.25)"><g class="label" transform="translate(-42.8359375, -9.5)"><foreignObject width="85.671875" height="19"><div xmlns="http://www.w3.org/1999/xhtml" style="display: inline-block; white-space: nowrap;"><span class="edgeLabel">token usage</span></div></foreignObject></g></g><g class="edgeLabel" transform="translate(1586.62109375, 1238.734375)"><g class="label" transform="translate(-42.8359375, -9.5)"><foreignObject width="85.671875" height="19"><div xmlns="http://www.w3.org/1999/xhtml" style="display: inline-block; white-space: nowrap;"><span class="edgeLabel">token usage</span></div></foreignObject></g></g><g class="edgeLabel" transform="translate(230.484375, 1341.734375)"><g class="label" transform="translate(-42.8359375, -9.5)"><foreignObject width="85.671875" height="19"><div xmlns="http://www.w3.org/1999/xhtml" style="display: inline-block; white-space: nowrap;"><span class="edgeLabel">token usage</span></div></foreignObject></g></g><g class="edgeLabel" transform="translate(806.30859375, 1341.734375)"><g class="label" transform="translate(-42.8359375, -9.5)"><foreignObject width="85.671875" height="19"><div xmlns="http://www.w3.org/1999/xhtml" style="display: inline-block; white-space: nowrap;"><span class="edgeLabel">token usage</span></div></foreignObject></g></g><g class="edgeLabel" transform="translate(1110.66015625, 1341.734375)"><g class="label" transform="translate(-42.8359375, -9.5)"><foreignObject width="85.671875" height="19"><div xmlns="http://www.w3.org/1999/xhtml" style="display: inline-block; white-space: nowrap;"><span class="edgeLabel">token usage</span></div></foreignObject></g></g><g class="edgeLabel" transform="translate(1415.01171875, 1341.734375)"><g class="label" transform="translate(-42.8359375, -9.5)"><foreignObject width="85.671875" height="19"><div xmlns="http://www.w3.org/1999/xhtml" style="display: inline-block; white-space: nowrap;"><span class="edgeLabel">token usage</span></div></foreignObject></g></g><g class="edgeLabel" transform="translate(726.83984375, 1505.734375)"><g class="label" transform="translate(-42.8359375, -9.5)"><foreignObject width="85.671875" height="19"><div xmlns="http://www.w3.org/1999/xhtml" style="display: inline-block; white-space: nowrap;"><span class="edgeLabel">token usage</span></div></foreignObject></g></g><g class="edgeLabel" transform="translate(485.70703125, 1566.734375)"><g class="label" transform="translate(-42.8359375, -9.5)"><foreignObject width="85.671875" height="19"><div xmlns="http://www.w3.org/1999/xhtml" style="display: inline-block; white-space: nowrap;"><span class="edgeLabel">token usage</span></div></foreignObject></g></g><g class="edgeLabel"><g class="label" transform="translate(0, 0)"><foreignObject width="0" height="0"><div xmlns="http://www.w3.org/1999/xhtml" style="display: inline-block; white-space: nowrap;"><span class="edgeLabel"></span></div></foreignObject></g></g><g class="edgeLabel"><g class="label" transform="translate(0, 0)"><foreignObject width="0" height="0"><div xmlns="http://www.w3.org/1999/xhtml" style="display: inline-block; white-space: nowrap;"><span class="edgeLabel"></span></div></foreignObject></g></g><g class="edgeLabel"><g class="label" transform="translate(0, 0)"><foreignObject width="0" height="0"><div xmlns="http://www.w3.org/1999/xhtml" style="display: inline-block; white-space: nowrap;"><span class="edgeLabel"></span></div></foreignObject></g></g><g class="edgeLabel"><g class="label" transform="translate(0, 0)"><foreignObject width="0" height="0"><div xmlns="http://www.w3.org/1999/xhtml" style="display: inline-block; white-space: nowrap;"><span class="edgeLabel"></span></div></foreignObject></g></g></g><g class="nodes"><g class="node default default flowchart-label" id="flowchart-A-0" data-node="true" data-id="A" transform="translate(1305.12109375, 17)"><rect class="basic label-container" style="" rx="0" ry="0" x="-117.7890625" y="-17" width="235.578125" height="34"/><g class="label" style="" transform="translate(-110.2890625, -9.5)"><rect/><foreignObject width="220.578125" height="19"><div xmlns="http://www.w3.org/1999/xhtml" style="display: inline-block; white-space: nowrap;"><span class="nodeLabel">book_path: .md / .pdf / .epub</span></div></foreignObject></g></g><g class="node default default flowchart-label" id="flowchart-B-1" data-node="true" data-id="B" transform="translate(1305.12109375, 110.5)"><rect class="basic label-container" style="" rx="0" ry="0" x="-101.421875" y="-26.5" width="202.84375" height="53"/><g class="label" style="" transform="translate(-93.921875, -19)"><rect/><foreignObject width="187.84375" height="38"><div xmlns="http://www.w3.org/1999/xhtml" style="display: inline-block; white-space: nowrap;"><span class="nodeLabel">Load content in memory<br />markitdown for PDF/EPUB</span></div></foreignObject></g></g><g class="node default default flowchart-label" id="flowchart-C-3" data-node="true" data-id="C" transform="translate(1305.12109375, 213.5)"><rect class="basic label-container" style="" rx="0" ry="0" x="-120.0859375" y="-26.5" width="240.171875" height="53"/><g class="label" style="" transform="translate(-112.5859375, -19)"><rect/><foreignObject width="225.171875" height="38"><div xmlns="http://www.w3.org/1999/xhtml" style="display: inline-block; white-space: nowrap;"><span class="nodeLabel">Extract metadata<br />iterative pi calls, JSON + repair</span></div></foreignObject></g></g><g class="node default default flowchart-label" id="flowchart-D-5" data-node="true" data-id="D" transform="translate(1226.8359375, 347.875)"><polygon points="57.875,0 115.75,-57.875 57.875,-115.75 0,-57.875" class="label-container" transform="translate(-57.875,57.875)" style=""/><g class="label" style="" transform="translate(-33.375, -9.5)"><rect/><foreignObject width="66.75" height="19"><div xmlns="http://www.w3.org/1999/xhtml" style="display: inline-block; white-space: nowrap;"><span class="nodeLabel">organize?</span></div></foreignObject></g></g><g class="node default default flowchart-label" id="flowchart-E-7" data-node="true" data-id="E" transform="translate(1109.27734375, 501.25)"><rect class="basic label-container" style="" rx="0" ry="0" x="-88.9765625" y="-26.5" width="177.953125" height="53"/><g class="label" style="" transform="translate(-81.4765625, -19)"><rect/><foreignObject width="162.953125" height="38"><div xmlns="http://www.w3.org/1999/xhtml" style="display: inline-block; white-space: nowrap;"><span class="nodeLabel">Move to books/Letter/<br />Title - Author.ext</span></div></foreignObject></g></g><g class="node default default flowchart-label" id="flowchart-F-9" data-node="true" data-id="F" transform="translate(1552.46875, 501.25)"><rect class="basic label-container" style="" rx="0" ry="0" x="-96.140625" y="-17" width="192.28125" height="34"/><g class="label" style="" transform="translate(-88.640625, -9.5)"><rect/><foreignObject width="177.28125" height="19"><div xmlns="http://www.w3.org/1999/xhtml" style="display: inline-block; white-space: nowrap;"><span class="nodeLabel">Keep book_path as given</span></div></foreignObject></g></g><g class="node default default flowchart-label" id="flowchart-G-11" data-node="true" data-id="G" transform="translate(1226.8359375, 594.75)"><rect class="basic label-container" style="" rx="0" ry="0" x="-121.5703125" y="-17" width="243.140625" height="34"/><g class="label" style="" transform="translate(-114.0703125, -9.5)"><rect/><foreignObject width="228.140625" height="19"><div xmlns="http://www.w3.org/1999/xhtml" style="display: inline-block; white-space: nowrap;"><span class="nodeLabel">Write book.md + metadata.json</span></div></foreignObject></g></g><g class="node default default flowchart-label" id="flowchart-H-15" data-node="true" data-id="H" transform="translate(1226.8359375, 688.25)"><rect class="basic label-container" style="" rx="0" ry="0" x="-95.0390625" y="-26.5" width="190.078125" height="53"/><g class="label" style="" transform="translate(-87.5390625, -19)"><rect/><foreignObject width="175.078125" height="38"><div xmlns="http://www.w3.org/1999/xhtml" style="display: inline-block; white-space: nowrap;"><span class="nodeLabel">Build TOC<br />parse headers + 1 pi call</span></div></foreignObject></g></g><g class="node default default flowchart-label" id="flowchart-I-17" data-node="true" data-id="I" transform="translate(988.85546875, 781.75)"><rect class="basic label-container" style="" rx="0" ry="0" x="-117.578125" y="-17" width="235.15625" height="34"/><g class="label" style="" transform="translate(-110.078125, -9.5)"><rect/><foreignObject width="220.15625" height="19"><div xmlns="http://www.w3.org/1999/xhtml" style="display: inline-block; white-space: nowrap;"><span class="nodeLabel">Write book.md into scratch dir</span></div></foreignObject></g></g><g class="node default default flowchart-label" id="flowchart-J1-19" data-node="true" data-id="J1" transform="translate(208.58203125, 894.25)"><rect class="basic label-container" style="" rx="0" ry="0" x="-79.4140625" y="-26.5" width="158.828125" height="53"/><g class="label" style="" transform="translate(-71.9140625, -19)"><rect/><foreignObject width="143.828125" height="38"><div xmlns="http://www.w3.org/1999/xhtml" style="display: inline-block; white-space: nowrap;"><span class="nodeLabel">pi: question 1<br />grep/find/read only</span></div></foreignObject></g></g><g class="node default default flowchart-label" id="flowchart-J2-21" data-node="true" data-id="J2" transform="translate(737.96875, 894.25)"><rect class="basic label-container" style="" rx="0" ry="0" x="-79.4140625" y="-26.5" width="158.828125" height="53"/><g class="label" style="" transform="translate(-71.9140625, -19)"><rect/><foreignObject width="143.828125" height="38"><div xmlns="http://www.w3.org/1999/xhtml" style="display: inline-block; white-space: nowrap;"><span class="nodeLabel">pi: question 2<br />grep/find/read only</span></div></foreignObject></g></g><g class="node default default flowchart-label" id="flowchart-J3-23" data-node="true" data-id="J3" transform="translate(1053.8046875, 894.25)"><rect class="basic label-container" style="" rx="0" ry="0" x="-28.3984375" y="-17" width="56.796875" height="34"/><g class="label" style="" transform="translate(-20.8984375, -9.5)"><rect/><foreignObject width="41.796875" height="19"><div xmlns="http://www.w3.org/1999/xhtml" style="display: inline-block; white-space: nowrap;"><span class="nodeLabel">pi: ...</span></div></foreignObject></g></g><g class="node default default flowchart-label" id="flowchart-J12-25" data-node="true" data-id="J12" transform="translate(1358.15625, 894.25)"><rect class="basic label-container" style="" rx="0" ry="0" x="-79.4140625" y="-26.5" width="158.828125" height="53"/><g class="label" style="" transform="translate(-71.9140625, -19)"><rect/><foreignObject width="143.828125" height="38"><div xmlns="http://www.w3.org/1999/xhtml" style="display: inline-block; white-space: nowrap;"><span class="nodeLabel">pi: question 12<br />grep/find/read only</span></div></foreignObject></g></g><g class="node default default flowchart-label" id="flowchart-TQ1-27" data-node="true" data-id="TQ1" transform="translate(97.7421875, 1106.4921875)"><polygon points="97.7421875,0 195.484375,-97.7421875 97.7421875,-195.484375 0,-97.7421875" class="label-container" transform="translate(-97.7421875,97.7421875)" style=""/><g class="label" style="" transform="translate(-73.2421875, -9.5)"><rect/><foreignObject width="146.484375" height="19"><div xmlns="http://www.w3.org/1999/xhtml" style="display: inline-block; white-space: nowrap;"><span class="nodeLabel">answer &lt; 100 words?</span></div></foreignObject></g></g><g class="node default default flowchart-label" id="flowchart-K-31" data-node="true" data-id="K" transform="translate(536.12890625, 1290.234375)"><rect class="basic label-container" style="" rx="0" ry="0" x="-70.234375" y="-17" width="140.46875" height="34"/><g class="label" style="" transform="translate(-62.734375, -9.5)"><rect/><foreignObject width="125.46875" height="19"><div xmlns="http://www.w3.org/1999/xhtml" style="display: inline-block; white-space: nowrap;"><span class="nodeLabel">Collect Q&amp;A pairs</span></div></foreignObject></g></g><g class="node default default flowchart-label" id="flowchart-TQ2-33" data-node="true" data-id="TQ2" transform="translate(536.12890625, 1106.4921875)"><polygon points="97.7421875,0 195.484375,-97.7421875 97.7421875,-195.484375 0,-97.7421875" class="label-container" transform="translate(-97.7421875,97.7421875)" style=""/><g class="label" style="" transform="translate(-73.2421875, -9.5)"><rect/><foreignObject width="146.484375" height="19"><div xmlns="http://www.w3.org/1999/xhtml" style="display: inline-block; white-space: nowrap;"><span class="nodeLabel">answer &lt; 100 words?</span></div></foreignObject></g></g><g class="node default default flowchart-label" id="flowchart-TQ3-39" data-node="true" data-id="TQ3" transform="translate(977.91796875, 1106.4921875)"><polygon points="97.7421875,0 195.484375,-97.7421875 97.7421875,-195.484375 0,-97.7421875" class="label-container" transform="translate(-97.7421875,97.7421875)" style=""/><g class="label" style="" transform="translate(-73.2421875, -9.5)"><rect/><foreignObject width="146.484375" height="19"><div xmlns="http://www.w3.org/1999/xhtml" style="display: inline-block; white-space: nowrap;"><span class="nodeLabel">answer &lt; 100 words?</span></div></foreignObject></g></g><g class="node default default flowchart-label" id="flowchart-TQ12-45" data-node="true" data-id="TQ12" transform="translate(1282.26953125, 1106.4921875)"><polygon points="97.7421875,0 195.484375,-97.7421875 97.7421875,-195.484375 0,-97.7421875" class="label-container" transform="translate(-97.7421875,97.7421875)" style=""/><g class="label" style="" transform="translate(-73.2421875, -9.5)"><rect/><foreignObject width="146.484375" height="19"><div xmlns="http://www.w3.org/1999/xhtml" style="display: inline-block; white-space: nowrap;"><span class="nodeLabel">answer &lt; 100 words?</span></div></foreignObject></g></g><g class="node default default flowchart-label" id="flowchart-L-51" data-node="true" data-id="L" transform="translate(536.12890625, 1402.734375)"><rect class="basic label-container" style="" rx="0" ry="0" x="-123.9375" y="-26.5" width="247.875" height="53"/><g class="label" style="" transform="translate(-116.4375, -19)"><rect/><foreignObject width="232.875" height="38"><div xmlns="http://www.w3.org/1999/xhtml" style="display: inline-block; white-space: nowrap;"><span class="nodeLabel">Write long summary<br />1 pi call: metadata + TOC + Q&amp;A</span></div></foreignObject></g></g><g class="node default default flowchart-label" id="flowchart-M-53" data-node="true" data-id="M" transform="translate(400, 1505.734375)"><rect class="basic label-container" style="" rx="0" ry="0" x="-134.515625" y="-26.5" width="269.03125" height="53"/><g class="label" style="" transform="translate(-127.015625, -19)"><rect/><foreignObject width="254.03125" height="38"><div xmlns="http://www.w3.org/1999/xhtml" style="display: inline-block; white-space: nowrap;"><span class="nodeLabel">Write short summary<br />1 pi call: metadata + long summary</span></div></foreignObject></g></g><g class="node default default flowchart-label" id="flowchart-N1-55" data-node="true" data-id="N1" transform="translate(601.8828125, 1711.734375)"><rect class="basic label-container" style="" rx="0" ry="0" x="-83.03125" y="-17" width="166.0625" height="34"/><g class="label" style="" transform="translate(-75.53125, -9.5)"><rect/><foreignObject width="151.0625" height="19"><div xmlns="http://www.w3.org/1999/xhtml" style="display: inline-block; white-space: nowrap;"><span class="nodeLabel">Render summary PDF</span></div></foreignObject></g></g><g class="node default default flowchart-label" id="flowchart-N2-57" data-node="true" data-id="N2" transform="translate(325.2421875, 1711.734375)"><rect class="basic label-container" style="" rx="0" ry="0" x="-101.21875" y="-17" width="202.4375" height="34"/><g class="label" style="" transform="translate(-93.71875, -9.5)"><rect/><foreignObject width="187.4375" height="19"><div xmlns="http://www.w3.org/1999/xhtml" style="display: inline-block; white-space: nowrap;"><span class="nodeLabel">Render shortsummary PDF</span></div></foreignObject></g></g><g class="node default default flowchart-label" id="flowchart-P-59" data-node="true" data-id="P" transform="translate(925.09765625, 1618.234375)"><rect class="basic label-container" style="" rx="0" ry="0" x="-50.234375" y="-17" width="100.46875" height="34"/><g class="label" style="" transform="translate(-42.734375, -9.5)"><rect/><foreignObject width="85.46875" height="19"><div xmlns="http://www.w3.org/1999/xhtml" style="display: inline-block; white-space: nowrap;"><span class="nodeLabel">RunProtocol</span></div></foreignObject></g></g><g class="node default default flowchart-label" id="flowchart-Q-72" data-node="true" data-id="Q" transform="translate(925.09765625, 1711.734375)"><rect class="basic label-container" style="" rx="0" ry="0" x="-114.7890625" y="-26.5" width="229.578125" height="53"/><g class="label" style="" transform="translate(-107.2890625, -19)"><rect/><foreignObject width="214.578125" height="38"><div xmlns="http://www.w3.org/1999/xhtml" style="display: inline-block; white-space: nowrap;"><span class="nodeLabel">Write protocol.json<br />runtime + tokens in/out/total</span></div></foreignObject></g></g><g class="node default default flowchart-label" id="flowchart-R-74" data-node="true" data-id="R" transform="translate(538.125, 1805.234375)"><rect class="basic label-container" style="" rx="0" ry="0" x="-25.4375" y="-17" width="50.875" height="34"/><g class="label" style="" transform="translate(-17.9375, -9.5)"><rect/><foreignObject width="35.875" height="19"><div xmlns="http://www.w3.org/1999/xhtml" style="display: inline-block; white-space: nowrap;"><span class="nodeLabel">Done</span></div></foreignObject></g></g></g></g></g></svg>